<svg xmlns="http://www.w3.org/2000/svg" xmlns:xlink="http://www.w3.org/1999/xlink" width="1921.688" height="1048.73" viewBox="0 0 1921.688 1048.73">
  <defs>
    <clipPath id="a">
      <rect width="1921.688" height="1048.73" fill="none"/>
    </clipPath>
  </defs>
  <g clip-path="url(#a)">
    <path d="M43.675,1148.071c-156.972-132.959-252.62-357.012-198.72-431.712,73.809-102.294,365.262,162.5,591.792,26.092C632.3,624.7,561.294,339.358,725,263.3c236.419-109.844,525.677,419.675,786.145,322.6,232.8-86.763,178.622-575.679,397.44-628.593,145.608-35.211,320.388,144.817,393.072,310.738,127.975,292.138,6.908,694.543-218.373,896.635-203.481,182.535-317.271,44.921-1242.546,90.138C444.86,1274.159,235.553,1310.6,43.675,1148.071Z" fill="#f8eadc"/>
  </g>
</svg>
