<svg xmlns="http://www.w3.org/2000/svg" width="93.118" height="100" viewBox="0 0 93.118 100">
  <g>
    <path d="M44.9,65.432l1.538.715,1.446-.558,17.179-17.12.29-.46a1.988,1.988,0,0,0,0-2.279l-.235-.442-.184-.122a2.3,2.3,0,0,0-2.869.1L48.749,58.584V18.6a2.259,2.259,0,0,0-4.5,0V58.566l-13.242-13.4a2.672,2.672,0,0,0-2.943,0l-.233.232a2.711,2.711,0,0,0,.1,3.071Z"/>
    <path d="M88.36,44.621a2.185,2.185,0,0,0-2.048,2.248V78.95H6.806V46.869a2.185,2.185,0,0,0-2.048-2.248A2.224,2.224,0,0,0,2.51,46.869V81.2a2.224,2.224,0,0,0,2.248,2.248h83.6A2.224,2.224,0,0,0,90.608,81.2V46.869A2.224,2.224,0,0,0,88.36,44.621Z"/>
  </g>
</svg>
