<?xml version="1.0" encoding="utf-8"?>
<!-- Generator: Adobe Illustrator 26.0.2, SVG Export Plug-In . SVG Version: 6.00 Build 0)  -->
<svg version="1.1" id="Layer_1" xmlns="http://www.w3.org/2000/svg" xmlns:xlink="http://www.w3.org/1999/xlink" x="0px" y="0px"
	 width="63.9px" height="100px" viewBox="0 0 63.9 100" style="enable-background:new 0 0 63.9 100;" xml:space="preserve">
<path d="M56.3,29.5L56.3,29.5c-6.1-6-15.9-6-22,0l-2.4,2.4l-2.4-2.4c-6.1-5.9-15.9-5.9-22,0c-5.9,6.1-5.9,15.9,0,22l22.8,22.8
	c0.3,0.4,0.7,0.6,1.2,0.6h0.4c0.7,0.1,1.3-0.2,1.7-0.7l22.7-22.7c2.9-2.9,4.6-6.8,4.5-10.9C60.9,36.4,59.3,32.4,56.3,29.5z
	 M56.5,40.6c0,3-1.1,5.8-3.2,7.9L31.9,69.9L10.5,48.5c-4.4-4.4-4.3-11.4,0-15.8c2-2.2,4.9-3.4,7.9-3.4c3,0,6,1.2,8.1,3.4l3.8,3.8
	c0.9,0.9,2.3,0.9,3.2,0c0,0,0,0,0,0l3.8-3.8c2.1-2.2,5-3.4,8.1-3.4c3,0,5.8,1.2,7.9,3.4C55.4,34.8,56.6,37.7,56.5,40.6z"/>
<path d="M56.3,29.5L56.3,29.5c-6.1-6-15.9-6-22,0l-2.4,2.4l-2.4-2.4c-6.1-5.9-15.9-5.9-22,0c-5.9,6.1-5.9,15.9,0,22l22.8,22.8
	c0.3,0.4,0.7,0.6,1.2,0.6h0.4c0.7,0.1,1.3-0.2,1.7-0.7l22.7-22.7c2.9-2.9,4.6-6.8,4.5-10.9C60.9,36.4,59.3,32.4,56.3,29.5z"/>
</svg>
