<svg xmlns="http://www.w3.org/2000/svg" width="520.658" height="285.741" viewBox="0 0 520.658 285.741">
  <path d="M499.389,145.423H463.771c-14.271,0-33.355-5.518-40.148-21.038-2.355-5.5-4.107-10.961-5.8-16.237l-2-6.059c-6.331-17.962-12.88-36.535-33-36.535-25.611,0-30.748,31.006-36.189,63.831l-1.025,6.092c-4.8,27.932-10.242,59.591-25.385,59.591-20.693,0-25.646-42.053-27.926-87.6C289.06,63.157,286,21.3,255.47,21.3c-31.79,0-33.63,51.511-35.758,111.112C218.12,167.464,214.8,240.4,197.192,240.4c-11.35,0-17.5-41.127-21.57-68.342l-.981-6.509c-4.844-40.7-10.87-91.358-42.206-91.358-18.976,0-25.272,17.665-30.822,33.251l-.349.972c-7.29,19.787-14.829,40.248-43.3,40.248h-36.7c-3.37,0-5.894,1.119-7.521,3.329-3.418,2.3-3.418,5.453-3.418,7.611,0,6.516,5.01,12.021,10.939,12.021h36.7c44.142,0,56.6-33.946,64.05-54.229l.558-1.517c2.869-7.457,7.2-18.725,9.863-18.725,10.063,0,16.289,48.2,19.324,71.7,6.558,46.993,13.338,95.586,45.433,95.586,38.94,0,42.114-63.4,45.476-130.612,2.411-84.676,11.755-89.314,12.8-89.563,8.367,0,11.231,41.8,12.609,61.882l.432,5.556c4.417,49.839,9.422,106.327,51.715,106.327,34.324,0,41.7-41.886,48.2-78.842l.475-2.7c6.775-47.429,13.638-47.974,13.926-47.974,3.34,0,6.074,5.454,10.874,21.769,1.334,4,3.07,8.4,4.962,13.209,1.2,3.039,2.464,6.243,3.776,9.738,10.617,25.943,39.677,35.148,61.334,35.148h35.618c5.93,0,10.94-5.5,10.94-12.016A10.7,10.7,0,0,0,499.389,145.423Z"/>
</svg>
