<svg xmlns="http://www.w3.org/2000/svg" width="157.341" height="100" viewBox="0 0 157.341 100">
  <g>
    <path d="M45.623,77.881l.028-42.118-.961-.378-7.185.005c-.835,0-1.09.258-1.09,1.1l.006,41.391H24.937l.008-41.438A.933.933,0,0,0,23.9,35.381L17,35.39c-.84,0-1.1.256-1.1,1.095l0,41.4H3.169l-.024-55.74,30.067.086,18.983,0a5.572,5.572,0,0,1,5.388,3.428,9.206,9.206,0,0,1,.83,4.165l0,48.064Z"/>
    <path d="M86.851,77.881l0-35.029,6.487.067,6.552-.013L99.84,53.453,99.829,64.27l.266.588a1.1,1.1,0,0,0,.813.271l18.822-.01c.849,0,1.095-.246,1.095-1.1l0-29.236-.2-.674a.864.864,0,0,0-.657-.215H86.875l-.019-11.776,26.979.108h13.586a5.526,5.526,0,0,1,5.279,3.29,9.057,9.057,0,0,1,.9,4.219v41.51a16.38,16.38,0,0,1-.142,2.169,4.419,4.419,0,0,1-3.686,4.2c-.369.082-.747.135-1.122.19l-.515.075Z"/>
    <polygon points="141.109 77.881 141.12 22.197 145.493 22.227 154.197 22.22 154.093 62.004 154.09 77.881 141.109 77.881"/>
    <polygon points="66.353 77.881 66.364 22.194 79.149 22.228 79.132 77.881 66.353 77.881"/>
  </g>
</svg>
