<svg xmlns="http://www.w3.org/2000/svg" width="478.023" height="86.024" viewBox="0 0 478.023 86.024">
  <path d="M376.246,22.529l.416-1.732c.486.966.213,2.182,1.321,3.054,1.937-3.58,1.419-7.342,1.555-11.1,1.01,4.94.625,9.905,1.191,15.341,1.4-1.559.847-3.042,1.285-4.365.4,1.622.285,3.768,1.259,4.54,2.183,1.734,1.2,5.705,4.717,6.25.313.049.466.976.758.515,1.268-2,3.045-2.093,5.1-1.787.675.1.859-.76.952-1.317a38,38,0,0,0,.726-5.292,7.562,7.562,0,0,1,3.779-6.47,3.115,3.115,0,0,0,1.41-2.795,7.933,7.933,0,0,1,.7-4.117c0,5.244-.019,10.487.006,15.731.016,3.169.052,3.115,3.2,3.459,1.061.116.267,1.7,1.414,2.086.763-1.154,1.184-2.323,3.114-2.8,1.542-.385,2.378-3.3,2.391-5.5.032-5.457.637-10.871,1.144-16.292.116-1.241.112-2.563,1.391-3.625.712,3.993-.942,8,.894,12.132,1.071-1.359.449-2.829,1.038-4.338.348,4.1,2.146,7.631,1.732,11.6,1.27-1.974.206-4.5,1.6-6.62a7.153,7.153,0,0,1,.694,4.288c-.577,4.883,2.083,8.782,3.728,12.982.519,1.326,1.476.882,1.925-.067a6.368,6.368,0,0,0,.427-2.6c.047-4.458-.007-8.918.059-13.376.037-2.474.145-4.956.408-7.415.151-1.413-.063-3.743,1.4-3.875,1.905-.172.9,2.444,1.763,3.462,2.742,3.238,1.592,7.429,2.855,11.016.233.665.255,1.522,1.1,1.525a1.594,1.594,0,0,0,1.691-1.386c.152-1.276.2-2.566.269-3.851.078-1.356.053-2.753,1.541-3.245a26.481,26.481,0,0,1,3.57,9.576c1.629-.051.974-1.561,1.9-1.927a2.467,2.467,0,0,1,.327.689c.376,2.9,1.955,5.524,1.847,8.562a2.549,2.549,0,0,0,2.4,2.632c1.475.021,1.768.959,2.562,2.16,2.592-6.3,3.2-12.79,5.131-19.086-2.216,6.914,2.758,11.1,5.879,16.1.308-2.2,1.751-3.84,2.32-5.835.166-.584.327-1.758,1.007-1.43.606.292,1.708.354,1.858,1.544s-.067,3.022,2.223,2.342c.11-.032.356.406.543.621q2.683,3.091,5.375,6.174c.04.046.178.006.658.006.523-3.7.168-7.581,1.244-11.624V55.583c-1.393-1.593-.752-3.466-1-5.2-.133-.943.077-2.3-1.13-2.409-1.063-.1-1.661,1.178-1.749,2.078-.164,1.672-.7,2.227-2.273,1.422-.276-.141-.667-.146-.665.236.016,2.655-2.794,3.919-3.112,6.4-.1.788.173,1.467-1.312,1.643-1.317.156-1.67-.435-1.893-1.1-.533-1.579-.751-3.262-1.217-4.869-.225-.777-.113-2.033-1.331-2.008a1.882,1.882,0,0,0-1.63,1.849c.466,2.618-2.915,3.168-2.738,5.511-1.1-.364-1.939,2.462-3.412-.02-1.33-2.239-1.278-4.506-1.452-6.832a4.992,4.992,0,0,0-1.045-3.315,2.082,2.082,0,0,0-3.643,1.1c-.671,2.593-2.086,4.82-3.188,7.162-.875,1.86-3.069,3.1-2.822,5.717-.2-1.092-.4-2.184-.616-3.328-2.651.778-1.913,3.052-2.168,4.878-.081.579-.1.634-.582.517-.137-.034-.169-.5-.408-1.3l-.487,3.672c-.922-3.952.223-8.087-3.579-10.9-2.356,7.131.661,15.227-4.208,21.621-1.071-1.593-1.956-5.825-2.042-9.542q-.194-8.319-.507-16.636a9.5,9.5,0,0,0-.475-2.288c-.137-.463-.414-.95-1.013-.9s-.692.55-.885,1.023c-1.216,2.993-2.476,5.968-3.72,8.948-1.172.775-1.385-1.574-2.361-.78-.822.669-.406,1.887-.7,2.8-.536,1.637.94,3.753-1.4,5.017-.942.509-1.342.92-2.023-.214-.721-1.2-1.66-2.373-1.562-3.784.238-3.43-1.272-6.188-2.963-8.952-.588-.961-1.348-1.7-2.36-1.337-2,.708-4.152,1.516-4.528,4.02-.614,4.089-1.941,8.08-1.717,12.289a6.212,6.212,0,0,1-.3,2.068c-.5-4.071.536-8.357-1.888-11.9-.084.127-.42.872-.575.836-1.179-.273-.361-1.533-.951-2.15-.783-.236-.143,1.517-.939.8a5.072,5.072,0,0,1-1.391-2.571c-.757-3.422-3.355-3.187-5.918-3.241-1.951-.041-2.441,1.461-3.013,2.76a12.907,12.907,0,0,0-.556,2.945c-.99-.4-.207-1.509-1.08-2.075-.9,1.027-.34,3.519-2.911,3.118-.706-.11-.75,1.263-.935,2-.874,3.482-1.476,7.016-2.112,10.544-.659,3.652-2.562,7.083-1.907,11.03-1.611-5.218-.573-10.517-.751-16.129l-1.3,3.042c-1.163-.655-.872-1.664-.814-2.4.311-3.923-1.157-7.6-1.491-11.443-.317-3.645-1.939-3.427-5.1-2.514-4.769,1.376-4.192,4.818-4.734,8.119-.137.834.546,2.331-1.429,2.128-1.527-.158-3.251.472-2.956-2.285.211-1.974-.094-1.988-2.411-3.383-.257-.155-.361-.642-.441-1-.683-3.023-1.962-3.152-4.874-1.965-.767.312-2.161,2.425-3.744.769-.57-.6-.716.2-1,.562-5.192,6.625-7.048,14.286-7.044,22.533,0,.291-.08.581-.224,1.569-.14-2.763-.244-4.831-.357-7.065-1.162.946-.552,2.563-1.62,3.3-1.154,1-2.08-4.989-3.565.36.034-5.494-1.832-10.34-1.832-15.445a48.637,48.637,0,0,0-.232-5.931c-.238-1.916-.367-4.6-2.893-4.448a5.156,5.156,0,0,0-4.654,4.447c-.365,1.835-.958,3.626-1.462,5.434-.816,2.929-.881,6.134-3.278,8.463.372-6.873-2.074-13.578-1.75-20.539.107-2.289-.749-2.61-3.073-2.321-4.891.608-8.968,2.876-13.088,5.21.433,2.36-2.719.8-2.86,2.642a46.368,46.368,0,0,1-.676,4.7c-.51,2.822-2.745,4.219-4.675,3.2-1.361-.718-1.031-1.825-1.047-2.8-.026-1.629-.179-2.96-2.265-2.929-1.094.016-1.443-.965-1.8-1.847-1.531,1.294-.679,4.034-2.805,4.122-1.489.062-1.389-1.885-1.832-3.4-.175,3.668-4.856,4.446-4.2,8.407a8.684,8.684,0,0,0-3.321-5.97c-1-.752-2.3-2.532-2.938-2.071-1.99,1.441-3.591-1.443-5.356-.118-.076.057-.747-.381-.831-.677-1.112-3.9-2.937-1.08-4.087-.254-3.171,2.281-3.915,5.748-4.058,9.455-.111,2.889.568,5.907-1.1,8.957a17.163,17.163,0,0,1-1.815-7.294c-.255-6.2-3.2-11.755-4.418-17.74-.455-2.23-2.136-.984-3.415-.359-2.319,1.134-3.32,3.734-4.382,5.511-1.481,2.478-4.632,4.386-4.675,7.938a40.339,40.339,0,0,1,.033-4.82c.392-3.24-2.03-5.677-2.334-8.762-.113-1.14-1.824-1-2.953-.32a5.913,5.913,0,0,1-4.034.773,4.883,4.883,0,0,0-4.991,3.171c-.311.691-.467,1.811-1.547,1.249-1.277-.664-2.64-1.015-3.561.047-1.635,1.885-4.493,3.037-4.132,6.274a15.053,15.053,0,0,1-.139,2.33A92.614,92.614,0,0,1,210.3,48.8c-.119-.772-.352-1.9-1.279-1.706-1.546.325-3.5.249-4.2,2.171-.845,2.294-2.118,4.419-2.513,6.89-1.181-.3-.433-1.289-1.208-1.79.558,4.6-1.513,8.787-1.694,13.89-2.148-3.01-2.506-6.027-3.009-8.874a80.979,80.979,0,0,1-1.195-11.8c-.066-2.367-1.32-2.053-2.632-1.7-2,.535-3.287,2.056-4.38,3.989l-2.255-2.708c-.944,2.337-2.215,2.805-4.248,1.636-.869-.5-1.9.453-2.313,1.452a21.128,21.128,0,0,0-.714,2.636c-1.3-.157-.724-1.45-1.328-2.038-.2.369-.323.628-.473.872-.778,1.265.224,3.532-2.586,3.788-.855.078-1.546,2.347-1.787,3.985-.984-3.524-1.961-7.05-2.956-10.572-.3-1.069-.23-2.461-2.076-2.149-1.291.218-2.461.341-2.7,2-.138.956-.067,2.551-1.887,1.266-.62-.437-.881.188-.936.674-.5,4.455-3.529,7.768-5.265,11.763-.278-4.679-.352-9.285-1.712-13.768-.436-1.434-.69-2.175-2.424-1.908-3.528.544-6.976.911-10.317,2.614-2.186,1.114-4.468,2.162-6.717,3.221-.835.393-.576,1.618-1.86,1.586-.457-1.269-.863-2.354-3.016-1.552-1.125.419-3.483-.651-3.867-2.726a2.084,2.084,0,0,0-2.391-1.666,2.628,2.628,0,0,0-2.336,1.8c-1.2,3.013-1.325,6.176-1.609,9.333-.177,1.968-.452,3.93-.748,5.885a1.619,1.619,0,0,1-1.569,1.528c-1.061.045-1.327-.745-1.354-1.582-.127-3.955-1.737-7.7-1.527-11.726.123-2.349-1.536-4.2-2.679-6.131-.486-.819-1.324-.961-2.287-.255-1.75,1.28-3.466,2.506-3.865,4.85-.253,1.489-.809,1.565-2.021.62-1.59-1.239-4.086-1.267-4.76-4.51-1.042,3.559-1.8,6.289-1.751,9.266-.425-.764.187-1.728-.755-2.464-.919,2.621.4,5.512-1.445,8.018-.992-3.585-.32-7.658-3.211-10.622-.088.682-.234,1.408-.264,2.14-.051,1.267-1.2.875-1.789,1.071-1.014.335-.9-.781-.964-1.314-.173-1.372-.142-2.768-.271-4.147-.037-.4.264-1.058-.475-1.168a5.146,5.146,0,0,0-1.1.065c.234,2.473-4.122-.789-3.245,2.6a1.663,1.663,0,0,1-.472,1.908c-1.023-.806-.09-2.126-.9-3.016A1.412,1.412,0,0,0,81.5,52.088c.384,2.07-1.681,2.872-2.226,4.51-.262.79-2.243.626-2.866-1.085a33.344,33.344,0,0,1-1.469-7.863c-.228-2.062-.93-2.9-3.266-2.176-4.429,1.378-9.381,1.29-12.978,4.916-.178.179-.779.144-.933.523a23.087,23.087,0,0,1-4.254,6.868c-3.8-1.5-2.747-5.881-4.518-8.772-1.124-1.836-1.85-2.067-3.567-.765a35.514,35.514,0,0,0-4.451,4.621c-2.518,2.732-3.871,2.71-5.253-.491-.386-.893.387-2.662-1.14-2.573-1.3.076-.367,1.937-1.454,3.194l-.6-6.432c-2.7,1.034-5.594,1.407-7.782,3.422-.089.083-.657-.314-.975-.528-1.53-1.03-2.389-.518-3.851.666-2,1.623-2.978,4.319-5.768,5.159-1.273.383-1.373,2.044-1.441,3.366-.111,2.158-.122,4.339-1.451,6.351-.353-4.947-2.815-9.474-2.51-14.514a6.317,6.317,0,0,0-1.212-4.193c-.629-.862-.625-2.921-2.77-1.459-.4.272-2.75-.575-2.78-1.868-.034-1.428.935-1.486,2.584-1.211a3.814,3.814,0,0,0,3.84-3.43c.154-4.471,1.515-8.8,1.354-13.287.044-.306.088-.313.128-.019.082.6.134,1.211.954,1.242,1.023.038,1.034-.719,1.106-1.414.088-.862.155-1.727.234-2.624,1.293.135,1.164,1.039,1.29,1.783.718,4.272,3.073,7.985,4.142,12.115.364,1.406,1.519-.033,2.2,1.256,1,1.9.748-1.53,2.377-.71l1.291,1.926c1.3-1.626,2.689-3.5,3.956-.1.233.626.477.536,1.657-1.1,1,.489.686,1.777,1.606,2.565,1.711-1.482,1.939-3.574,2.273-6.359l.986,3.054.366-.041.3-3.691c.841.091.1,1.217,1.263,1.275a27.258,27.258,0,0,1,1.766-3.042c1.479-1.991,3.222-1.788,4.576.285.979,1.5,2.047,2.929,2.19,4.781.117,1.523,1.906.227,2.219,1.375a3.331,3.331,0,0,0,2.009,2.3c-.109-3.1,1.133-5.76,1.581-8.59.258-1.625.973-2.782,2.52-2.68,1.514.1,3.215.549,3.281,2.721a23.427,23.427,0,0,0,.333,2.352c.155,1.148.308,2,1.961,1.923.949-.042,2.084.818,2.9,1.54,3.577,3.177,8.262,2.729,12.455,3.8,1.085.277,1.174-1.554,1.248-2.564.207-2.864.275-5.737.484-8.6.05-.7-.184-1.8.965-1.851.894-.038,1.111.927,1.076,1.532-.119,2.083,1.735-.337,2.1,1.032.6,2.262,4.365,2.522,3.763,5.682-.051.268.121.533.525.512,1.241-.063.928-1.326,1.768-2.263C84.8,37.964,87.99,35.573,88.66,37c.057.119.2-.031.808-2.04.814-2.675-.182-5.574,1.159-8.315.755.54.575,1.367.826,2.008.452,1.152-.628,3.072,1.29,3.423,2.021.369,2.813-1.161,3.23-2.881.089-.368.265-.716.558-1.489,1.439,3.2,2.063,6.383,4.1,9.165,1.017-1.989.64-4.127,1.884-6.02,1.3,2.238,4.491,1.648,5.6,4.137.154.347.554.582.718.927.756,1.588,1.418,3.942,3.438,3.38,1.914-.533,2.2-3.061,2.595-4.944a17.947,17.947,0,0,0,.485-7.08c-.728-3.691,2.3-6.481,2.095-10.032a28.982,28.982,0,0,0,1.781,9.063c.985,3.071,1.619,6.191,2.4,9.286.483,1.925,1.751,1.541,3.122,1.628,1.587.1,2.081-.622,2.239-1.966.28-2.385.816-4.659,3.047-6.482.444,2.783,2.033,3.776,4.587,3.331,1.455-.253,1,1.886,2.75,2.029,1.466.119,2.257,2.171,4.758,2.239,1.906.052,4.512,1.619,6.892,2.287.557.156,1.135.24,1.7.361,2.774.588,3.807-.258,4.477-3.329.921-4.224.892-8.389,1.055-12.6.033-.857-.143-1.788.57-2.5,2.562,4.915,2.7,10.668,5.47,15.5.271.473,5.632,3.088,6.155,2.847,1.68-.776,1.363-2.448,1.629-3.853.632-3.346,1.266-6.692,2.006-10.6.469,5.616,5.691,6.965,7.964,11.319.149-1.929.252-3.265.356-4.6l.23,0a18.573,18.573,0,0,0,.023,2.66c.208,1.423-.417,3.383.912,4.1.965.523,2.321-1.4,3.947-.625.474.226.693-.818.714-1.392a24.517,24.517,0,0,1,.229-3.555,31.254,31.254,0,0,0,.04,3.788c.1.8-.44,3.014,1.7,1.2.525-.445.834.121,1.136.52.416.547.784,1.274,1.351,1.532,1.2.543,2.609,1.316,3.741,1.078.982-.206.529-1.919.635-2.963.474-4.657-.22-9.53,2.738-13.9,1.457,1.032.276,2.825,1.157,3.942,1.808-.472,1.147-2.344,2.278-3.88.891,3.879,2.053,7.351,2.394,10.9.307,3.21,3.7,2.405,4.775,4.433.115.218,1.218-.29,1.387-1.145.4-2.008,1.595-3.78,1.379-6-.222-2.273,2.627-3.752,2.039-6.286a6.469,6.469,0,0,0,.147,1.331c.3.932-.626,2.457.815,2.75,1.573.321,1.41-1.464,2.015-2.7a22.561,22.561,0,0,0,.322,3.32c.694,2.677,1.457,5.121,4.75,6.062,2.217.634,4.524,1.171,6.6,2.759,1.423,1.088,4.146-.108,6.332.6,1.075.349.953-1.207,1.054-2.025.216-1.745-.107-3.523.7-5.237.9-1.895,1.694-3.78,4.046-4.675-.9,4.977,3.265,7.222,5.512,10.509.792,1.159,2.167.422,3.239.681.64.155.422-1.3.525-2.032.451-3.218,1.077-6.3,4.195-8.181.737-.445.44-1.455.536-2.212a30.907,30.907,0,0,1,1.014-5.653c.965,5.585,3.822,9.646,9.031,12.04.752-.688.975-2.414,2.651-2.735.179,2.7,2.45,3.2,4.378,3.151,3.267-.081.52-3.6,2.536-4.831.964.935.428,2.774,2.02,3.878.381-4.791,1.515-9.22,1.883-13.873,1.01,3.908,1.461,7.889,2.751,11.8,1.343-.867,1.355-2.147,1.9-3.409l1.085,2.576c1.371-1.053.612-2.549,1.581-4.158-.672,3.211,1.643,4.5,2.666,6.5.941-.807.5-2.081,1.132-3.265.158.981.277,1.715.485,3,.908-2.81,1.644-5.085,2.386-7.38.5.273.209,2.1,1.643.616,1.341-1.386,2.724-.715,2.9,1.151a10.408,10.408,0,0,1,.081,2.668c-.69,4.063,3.151,5.359,4.783,8,3.371-2.067,3.437,2.408,5.007,2.611a54.755,54.755,0,0,1,7.1,1.228c1.046.276,2.645-1.348,2.645-3.5,0-8.6,1.548-17.08,2.271-25.659,1.262,3.827.1,7.863.926,12.609.739-6.693.213-12.538.547-19.027,1.752,5.6.888,10.743,1.177,15.777A32.167,32.167,0,0,0,323.5,31.246c.434,1.041,2.317,1.98,3.578,2.036,1.238.055,1.272-1.73,1.588-2.852,1.844-6.558,1.623-13.34,2.3-20.416.146,1.411.254,2.462.362,3.512.167-3.119.932-6.139,1.293-9.106a13.769,13.769,0,0,1,2.5,7.469c1.545-.393.861-1.883,1.578-2.338,1.747,5.646,2.239,11.562,3.7,17.39.315-2.764.629-5.527.986-8.658,3.657,3.441.616,8.9,4.619,11.7.844-.605.2-1.866,1.091-2.75,1.172.837,1.108,2.231,1.074,3.325-.06,1.918.922,2.667,2.52,2.64s3.362-.429,3.482-2.465c.168-2.844,2.3-5.113,2.041-7-.511,1.776,2.157,1.689,3.483,2.643.9.65,1.009-.427,1.01-1.128a33.272,33.272,0,0,1,.321-5.572c1.341,2.68.972,5.606,1.388,8.392.479,3.2,2.875,4.824,4.917,6.376,1.156.878,2.316-1.68,3.355-2.825.111-.122.1-.381.1-.576-.042-7.943,3.18-15.5,2.753-23.493a3.577,3.577,0,0,1,1.307-3.466L375.957,22.4Z"/>
</svg>
