<svg xmlns="http://www.w3.org/2000/svg" width="201.6" height="100" viewBox="0 0 201.6 100">
  <g>
    <path d="M156.757,45.782l.168-.7c.2.39.086.88.533,1.232.781-1.445.572-2.962.627-4.48.408,1.993.253,4,.481,6.19.566-.63.341-1.228.518-1.762.163.655.115,1.521.508,1.832.881.7.484,2.3,1.9,2.522.126.02.187.394.3.208a1.8,1.8,0,0,1,2.059-.721c.273.04.347-.307.385-.531a15.4,15.4,0,0,0,.292-2.136,3.051,3.051,0,0,1,1.525-2.61,1.258,1.258,0,0,0,.569-1.128,3.2,3.2,0,0,1,.283-1.661c0,2.115-.007,4.231,0,6.347.006,1.278.021,1.257,1.29,1.4.428.046.107.686.57.841.308-.465.478-.937,1.257-1.131.622-.155.959-1.331.964-2.219.013-2.2.258-4.386.462-6.574a1.846,1.846,0,0,1,.561-1.462c.287,1.611-.38,3.227.361,4.895.432-.548.181-1.141.419-1.75.14,1.653.866,3.079.7,4.679.512-.8.083-1.814.646-2.672a2.889,2.889,0,0,1,.28,1.73c-.233,1.971.84,3.544,1.5,5.239.21.535.6.356.777-.027a2.585,2.585,0,0,0,.172-1.049c.019-1.8,0-3.6.024-5.4.015-1,.058-2,.164-2.991.061-.571-.025-1.511.565-1.564.769-.069.364.986.712,1.4,1.106,1.307.642,3,1.152,4.445.094.268.1.614.441.615a.643.643,0,0,0,.683-.559c.061-.515.079-1.035.108-1.554.032-.547.022-1.111.622-1.309a10.681,10.681,0,0,1,1.441,3.864c.657-.021.392-.63.767-.778a.982.982,0,0,1,.132.278c.152,1.171.789,2.229.746,3.455a1.029,1.029,0,0,0,.966,1.062c.6.008.714.386,1.034.871,1.046-2.542,1.292-5.161,2.07-7.7-.894,2.79,1.113,4.477,2.372,6.5a16.741,16.741,0,0,1,.936-2.355c.067-.235.132-.709.407-.577.244.118.689.143.75.623s-.027,1.22.9.945c.045-.013.144.164.219.251q1.083,1.247,2.169,2.491c.016.018.072,0,.266,0a35.87,35.87,0,0,1,.5-4.69V59.119c-.562-.642-.3-1.4-.4-2.1-.054-.38.031-.928-.456-.972-.429-.039-.67.475-.706.838-.066.675-.282.9-.917.574-.111-.057-.269-.058-.268.1.006,1.071-1.128,1.581-1.256,2.582-.041.318.07.592-.529.663-.532.063-.674-.176-.764-.443-.215-.638-.3-1.317-.491-1.965-.091-.313-.046-.82-.537-.81a.759.759,0,0,0-.658.746c.188,1.056-1.176,1.278-1.1,2.223-.443-.146-.783.994-1.377-.007a5.794,5.794,0,0,1-.586-2.757,2.017,2.017,0,0,0-.422-1.338.84.84,0,0,0-1.47.443,16.6,16.6,0,0,1-1.286,2.89c-.353.751-1.238,1.251-1.138,2.307l-.249-1.343c-1.07.314-.772,1.231-.875,1.968-.032.234-.042.256-.235.209-.055-.014-.068-.2-.165-.524l-.2,1.482c-.372-1.595.09-3.263-1.444-4.4-.95,2.877.267,6.144-1.7,8.724a9.03,9.03,0,0,1-.824-3.85c-.052-2.238-.124-4.475-.2-6.712a3.811,3.811,0,0,0-.192-.924c-.055-.187-.167-.383-.409-.364s-.279.222-.357.413c-.49,1.207-1,2.408-1.5,3.61-.472.313-.559-.635-.952-.315-.332.27-.164.762-.285,1.131-.216.66.379,1.514-.564,2.024-.38.2-.541.371-.816-.087a2.747,2.747,0,0,1-.63-1.526,6.017,6.017,0,0,0-1.2-3.612c-.237-.388-.544-.684-.952-.54-.808.286-1.675.612-1.827,1.622a24.534,24.534,0,0,0-.693,4.959,2.512,2.512,0,0,1-.123.834c-.2-1.642.216-3.372-.762-4.8-.033.051-.169.352-.232.338-.476-.111-.145-.619-.384-.868-.315-.095-.057.612-.378.325a2.05,2.05,0,0,1-.562-1.038c-.305-1.381-1.353-1.285-2.387-1.307-.787-.017-.985.589-1.216,1.113a5.15,5.15,0,0,0-.224,1.189c-.4-.163-.084-.609-.436-.838-.363.415-.137,1.42-1.175,1.258-.285-.044-.3.51-.377.808-.352,1.405-.595,2.831-.852,4.254-.266,1.474-1.034,2.858-.77,4.451-.65-2.105-.231-4.244-.3-6.508l-.524,1.227c-.469-.264-.352-.671-.329-.968.126-1.583-.466-3.066-.6-4.617-.128-1.471-.783-1.383-2.059-1.014-1.924.555-1.691,1.944-1.91,3.276-.055.336.22.94-.577.858-.616-.063-1.311.191-1.192-.922.085-.8-.038-.8-.973-1.365-.1-.062-.146-.259-.178-.4-.276-1.219-.792-1.271-1.967-.793-.309.127-.872.979-1.51.311-.23-.241-.289.082-.4.227a14.191,14.191,0,0,0-2.842,9.091c0,.118-.032.235-.09.633-.056-1.115-.1-1.949-.144-2.85-.469.381-.223,1.034-.654,1.332-.465.4-.839-2.013-1.438.145.014-2.217-.739-4.172-.739-6.232a19.479,19.479,0,0,0-.094-2.393c-.1-.773-.148-1.856-1.167-1.8a2.081,2.081,0,0,0-1.878,1.794c-.147.741-.386,1.464-.59,2.193-.329,1.182-.355,2.475-1.323,3.415.151-2.773-.836-5.479-.7-8.287.043-.924-.3-1.053-1.24-.937a14.275,14.275,0,0,0-5.281,2.1c.174.953-1.1.324-1.154,1.066a18.714,18.714,0,0,1-.273,1.895c-.206,1.139-1.108,1.7-1.886,1.292-.55-.29-.416-.737-.423-1.131-.01-.657-.072-1.194-.914-1.181-.441.006-.582-.39-.725-.746-.617.522-.274,1.628-1.131,1.664-.6.024-.561-.761-.74-1.374-.07,1.48-1.959,1.794-1.694,3.392a3.506,3.506,0,0,0-1.34-2.409c-.4-.3-.929-1.021-1.185-.835-.8.581-1.449-.582-2.161-.048-.031.023-.3-.154-.336-.273-.448-1.574-1.185-.436-1.649-.1a4.511,4.511,0,0,0-1.637,3.815c-.045,1.165.229,2.383-.443,3.614a6.936,6.936,0,0,1-.732-2.944c-.1-2.5-1.289-4.743-1.783-7.157-.183-.9-.862-.4-1.377-.145-.936.457-1.34,1.507-1.769,2.224-.6,1-1.868,1.769-1.886,3.2a16.169,16.169,0,0,1,.014-1.945c.158-1.307-.82-2.29-.942-3.535-.046-.46-.736-.4-1.192-.129a2.382,2.382,0,0,1-1.627.312A1.97,1.97,0,0,0,94.8,57.073c-.126.279-.189.731-.625.5-.515-.268-1.065-.409-1.436.019-.66.761-1.813,1.226-1.668,2.532a5.96,5.96,0,0,1-.056.94A37.462,37.462,0,0,1,89.8,56.381c-.048-.311-.142-.767-.516-.688-.624.131-1.411.1-1.7.876a14.929,14.929,0,0,0-1.014,2.78c-.476-.119-.175-.52-.488-.723.226,1.856-.61,3.546-.683,5.6a7.934,7.934,0,0,1-1.214-3.581,32.646,32.646,0,0,1-.482-4.761c-.027-.955-.533-.829-1.062-.687a3,3,0,0,0-1.768,1.61l-.91-1.093c-.38.943-.893,1.132-1.713.66-.351-.2-.768.183-.934.586a8.713,8.713,0,0,0-.288,1.064c-.525-.064-.292-.585-.535-.823-.081.149-.131.254-.191.352-.314.511.09,1.425-1.044,1.529-.345.031-.623.947-.721,1.608-.4-1.422-.791-2.845-1.193-4.266-.122-.431-.092-.993-.837-.867-.521.088-.993.137-1.09.809-.056.385-.027,1.029-.761.51-.251-.176-.356.076-.378.272-.2,1.8-1.424,3.135-2.125,4.746a23.586,23.586,0,0,0-.69-5.555c-.176-.578-.279-.877-.978-.769a13.1,13.1,0,0,0-4.163,1.054c-.882.45-1.8.873-2.71,1.3-.337.158-.233.653-.751.64-.184-.512-.348-.95-1.216-.627a1.392,1.392,0,0,1-1.561-1.1.841.841,0,0,0-.965-.673,1.06,1.06,0,0,0-.942.726,13.029,13.029,0,0,0-.649,3.765c-.072.8-.183,1.586-.3,2.375a.653.653,0,0,1-.633.616c-.428.019-.536-.3-.546-.638-.052-1.6-.7-3.105-.616-4.731a4.638,4.638,0,0,0-1.081-2.474c-.2-.33-.535-.387-.923-.1a3.14,3.14,0,0,0-1.56,1.957c-.1.6-.326.632-.815.25-.642-.5-1.649-.511-1.921-1.819a12.435,12.435,0,0,0-.706,3.738c-.172-.308.075-.7-.3-.994-.371,1.058.162,2.224-.583,3.235-.4-1.446-.129-3.089-1.295-4.285-.036.275-.095.568-.107.863-.021.511-.484.353-.722.432-.409.135-.362-.315-.389-.53-.07-.554-.057-1.117-.109-1.673-.015-.162.106-.427-.192-.472a2.166,2.166,0,0,0-.445.026c.1,1-1.663-.318-1.309,1.05a.67.67,0,0,1-.19.77c-.413-.325-.037-.858-.363-1.217a.57.57,0,0,0-.588.672c.155.835-.678,1.159-.9,1.82-.106.319-.9.252-1.156-.438a13.441,13.441,0,0,1-.593-3.172c-.092-.832-.375-1.172-1.318-.878-1.787.555-3.785.52-5.236,1.983-.072.072-.315.058-.377.211a9.308,9.308,0,0,1-1.716,2.771c-1.534-.6-1.108-2.372-1.823-3.539-.454-.741-.746-.834-1.439-.309a14.288,14.288,0,0,0-1.8,1.865c-1.016,1.1-1.562,1.093-2.12-.2-.156-.361.156-1.075-.46-1.038-.524.03-.148.781-.586,1.288l-.244-2.6a8.889,8.889,0,0,0-3.14,1.381c-.036.033-.265-.127-.394-.213-.617-.416-.963-.209-1.553.269-.808.654-1.2,1.742-2.328,2.081-.513.154-.553.825-.581,1.358a4.775,4.775,0,0,1-.585,2.563c-.143-2-1.136-3.823-1.013-5.856a2.557,2.557,0,0,0-.489-1.693c-.254-.347-.252-1.178-1.118-.588-.161.11-1.109-.232-1.122-.754-.013-.576.377-.6,1.043-.488a1.539,1.539,0,0,0,1.549-1.384c.062-1.8.612-3.551.547-5.361.017-.124.035-.127.051-.008.034.24.055.489.385.5.413.016.418-.29.446-.57.036-.348.063-.7.095-1.059.522.054.47.419.52.719.29,1.724,1.24,3.222,1.672,4.888.147.568.612-.013.888.507.4.765.3-.617.959-.286l.521.777c.523-.656,1.085-1.411,1.6-.04.094.253.192.216.668-.444.406.2.277.718.649,1.035a3.644,3.644,0,0,0,.917-2.565l.4,1.232.147-.017.122-1.489c.339.037.042.491.509.514a11.189,11.189,0,0,1,.713-1.227c.6-.8,1.3-.721,1.846.115a4.174,4.174,0,0,1,.884,1.929c.047.615.769.092.895.555a1.346,1.346,0,0,0,.811.927,17.206,17.206,0,0,1,.638-3.466c.1-.655.393-1.122,1.017-1.081s1.3.221,1.324,1.1a9.1,9.1,0,0,0,.134.949c.062.463.124.8.791.776a2.012,2.012,0,0,1,1.169.621c1.443,1.282,3.333,1.1,5.026,1.534.437.112.473-.627.5-1.035.083-1.155.111-2.314.2-3.47.021-.28-.074-.727.39-.746.36-.016.448.374.434.618-.048.84.7-.136.847.416.243.913,1.761,1.018,1.518,2.293-.021.108.049.215.212.206.5-.025.374-.535.713-.913-.325,1.421.961.457,1.231,1.032.023.048.079-.013.326-.824.329-1.079-.073-2.248.468-3.354.3.217.232.551.333.81.183.465-.253,1.239.521,1.381.815.149,1.135-.468,1.3-1.162.036-.149.107-.289.225-.6a18.984,18.984,0,0,0,1.655,3.7c.41-.8.258-1.665.76-2.429.525.9,1.812.664,2.259,1.669.063.14.224.235.29.374.3.64.572,1.59,1.387,1.364.772-.215.887-1.235,1.047-1.995a7.227,7.227,0,0,0,.2-2.857c-.294-1.489.926-2.615.846-4.047a11.685,11.685,0,0,0,.718,3.656c.4,1.239.653,2.5.967,3.747.2.777.706.622,1.259.657.641.041.84-.251.9-.793A3.591,3.591,0,0,1,57.413,48.3a1.413,1.413,0,0,0,1.851,1.344c.587-.1.4.761,1.11.819.591.048.91.876,1.919.9a16.18,16.18,0,0,1,2.781.923c.225.063.458.1.687.146,1.119.237,1.536-.1,1.806-1.343a28.56,28.56,0,0,0,.426-5.085c.013-.346-.057-.721.23-1.007,1.034,1.983,1.089,4.305,2.207,6.253A8.243,8.243,0,0,0,72.913,52.4c.678-.312.55-.987.658-1.554.255-1.35.511-2.7.809-4.279.19,2.266,2.3,2.811,3.214,4.567l.143-1.856h.093a7.539,7.539,0,0,0,.009,1.074c.084.574-.168,1.364.368,1.656.389.211.937-.565,1.593-.252.191.091.28-.331.288-.562a9.857,9.857,0,0,1,.092-1.434,12.551,12.551,0,0,0,.017,1.528c.039.324-.178,1.216.686.483.212-.179.337.049.459.21.167.221.316.514.545.618a2.83,2.83,0,0,0,1.509.435c.4-.083.214-.774.256-1.2.191-1.879-.088-3.845,1.105-5.607.588.416.111,1.14.467,1.59.729-.19.463-.945.919-1.565a35.87,35.87,0,0,1,.966,4.4c.124,1.3,1.493.97,1.926,1.788.047.088.492-.117.56-.462a7.93,7.93,0,0,0,.556-2.421c-.089-.917,1.061-1.514.823-2.536a2.637,2.637,0,0,0,.06.537c.12.376-.253.991.329,1.11.634.129.569-.591.812-1.088a9.246,9.246,0,0,0,.13,1.339c.28,1.08.588,2.066,1.917,2.446a7.458,7.458,0,0,1,2.664,1.113c.574.439,1.673-.043,2.555.243.434.141.385-.487.425-.816a6.374,6.374,0,0,1,.284-2.114,3.058,3.058,0,0,1,1.632-1.886c-.363,2.009,1.318,2.914,2.224,4.24.32.468.875.17,1.307.275.259.063.171-.524.212-.82.182-1.3.435-2.542,1.693-3.3.3-.179.177-.587.216-.892a12.574,12.574,0,0,1,.409-2.281,6.139,6.139,0,0,0,3.644,4.858c.3-.278.394-.974,1.07-1.1.072,1.087.988,1.29,1.766,1.271,1.319-.033.21-1.454,1.023-1.95.389.378.173,1.12.816,1.565.153-1.933.611-3.72.759-5.6.408,1.577.59,3.183,1.11,4.759.542-.349.547-.866.766-1.375l.438,1.039c.553-.425.247-1.028.638-1.678-.271,1.3.663,1.816,1.076,2.623.38-.325.2-.839.457-1.317l.195,1.211.963-2.978c.2.11.084.847.663.249.541-.56,1.1-.289,1.171.464a4.186,4.186,0,0,1,.032,1.076c-.278,1.64,1.272,2.163,1.93,3.226,1.36-.834,1.387.972,2.021,1.054a22.008,22.008,0,0,1,2.865.495c.422.111,1.067-.544,1.067-1.411,0-3.468.625-6.891.916-10.352.509,1.544.04,3.172.374,5.087.3-2.7.086-5.059.221-7.677.706,2.26.358,4.335.475,6.366a12.976,12.976,0,0,0,1.174,4.266,1.893,1.893,0,0,0,1.444.821c.5.022.513-.7.64-1.151.744-2.646.655-5.382.927-8.237l.146,1.417c.067-1.259.376-2.477.522-3.674a5.559,5.559,0,0,1,1.01,3.013c.624-.158.348-.759.637-.943.7,2.278.9,4.665,1.494,7.017.127-1.115.254-2.23.4-3.494,1.476,1.389.249,3.591,1.864,4.723.341-.244.082-.753.44-1.11a1.431,1.431,0,0,1,.434,1.342c-.024.774.372,1.076,1.017,1.066s1.356-.174,1.405-1c.067-1.148.927-2.063.823-2.823-.206.716.87.681,1.406,1.066.364.262.406-.172.407-.455a13.39,13.39,0,0,1,.13-2.248,10.6,10.6,0,0,1,.56,3.386,4.049,4.049,0,0,0,1.984,2.572c.466.355.934-.678,1.353-1.139a.386.386,0,0,0,.04-.233c-.017-3.2,1.283-6.255,1.111-9.479a1.441,1.441,0,0,1,.527-1.4l.449,7.385Z"/>
    <path d="M177.26,37.781a11.965,11.965,0,0,1,.208-2.74C178.421,35.937,178.413,36.047,177.26,37.781Z"/>
  </g>
  <rect x="67.032" y="33.011" width="164.553" height="38.77" fill="#f8eadc" opacity="0.84"/>
</svg>
